Coordinates
version=1
nRows=14
nColumns=42
inDegrees=yes

Units are S.I. units (second, meters, Newtons, ...)
If the header above contains a line with 'inDegrees', this indicates whether rotational values are in degrees (yes) or radians (no).

endheader
time	pelvis_tilt	pelvis_list	pelvis_rotation	pelvis_tx	pelvis_ty	pelvis_tz	hip_flexion_r	hip_adduction_r	hip_rotation_r	knee_angle_r	knee_adduction_r	knee_angle_r_beta	ankle_angle_r	subtalar_angle_r	mtp_angle_r	hip_flexion_l	hip_adduction_l	hip_rotation_l	knee_angle_l	knee_adduction_l	knee_angle_l_beta	ankle_angle_l	subtalar_angle_l	mtp_angle_l	lumbar_extension	lumbar_bending	lumbar_rotation	arm_flex_r	arm_add_r	arm_rot_r	elbow_flex_r	pro_sup_r	wrist_flex_r	wrist_dev_r	arm_flex_l	arm_add_l	arm_rot_l	elbow_flex_l	pro_sup_l	wrist_flex_l	wrist_dev_l
      0.98000000	     -0.75313626	      2.25828974	      0.83029360	     -0.95135412	      0.89037617	     -0.22342777	     -1.63014201	    -12.47291076	     -1.37213508	     53.87084425	     12.22520995	      0.94022360	     -5.80790185	     -3.57249612	     -7.60342378	     14.75662241	     -3.35214569	     -3.52680107	     18.51068725	     16.54213302	      0.32307244	      6.34717278	     -1.38643348	     -7.60342378	    -10.49139060	     -1.67059881	      3.08216003	     -3.49557356	    -13.69411368	     -4.21507437	     17.21496669	     90.00000001	      0.00000000	      0.00000000	    -11.23744759	     -9.76023074	      3.59452079	     20.33054462	     90.00000001	      0.00000000	      0.00000000
      0.99000000	     -0.65449567	      1.98725578	      0.89490355	     -0.94069095	      0.89227268	     -0.22425775	      0.02219908	    -12.03606400	     -1.17160888	     55.49876069	     11.74840611	      0.96863610	     -4.21262740	     -4.42307484	     -7.60170952	     13.61080027	     -3.59315320	     -3.47290213	     18.00699363	     16.61360772	      0.31428133	      6.85281278	     -0.79925056	     -7.60170952	    -10.65134449	     -1.31373703	      2.90976631	     -3.53070345	    -13.71992049	     -4.21892896	     17.17776972	     90.00000001	      0.00000000	      0.00000000	    -10.84247559	     -9.98958800	      3.52475168	     20.57808382	     90.00000001	      0.00000000	      0.00000000
      1.00000000	     -0.64740441	      1.69252190	      0.89406525	     -0.92997405	      0.89398647	     -0.22491455	      1.77766668	    -11.58539147	     -1.15323916	     56.86336105	     11.21865459	      0.99245287	     -2.36478677	     -5.24309756	     -7.59998225	     12.47273185	     -3.89614961	     -3.45481555	     17.33340706	     16.70857859	      0.30252502	      7.37750745	     -0.18075645	     -7.59998225	    -10.65637284	     -0.93121687	      2.76874984	     -3.55874043	    -13.74353526	     -4.24508708	     17.10683921	     90.00000001	      0.00000000	      0.00000000	    -10.51317868	    -10.22813332	      3.43899004	     20.79972451	     90.00000001	      0.00000000	      0.00000000
      1.01000000	     -0.68042773	      1.37940843	      0.97562749	     -0.91914058	      0.89554992	     -0.22571617	      3.46103738	    -11.14914565	     -1.33231553	     57.82960818	     10.75128331	      1.00931707	     -0.55238010	     -5.80014585	     -7.59805532	     11.34433250	     -4.22085177	     -3.43227094	     16.57861844	     16.82501491	      0.28935148	      7.87910081	      0.44190135	     -7.59805532	    -10.58699527	     -0.50075282	      2.54418539	     -3.63063489	    -13.75838340	     -4.32248084	     17.01205860	     90.00000001	      0.00000000	      0.00000000	    -10.21775439	    -10.43046968	      3.34916885	     21.01969302	     90.00000001	      0.00000000	      0.00000000
      1.02000000	     -0.61963576	      1.03905778	      1.17619905	     -0.90835574	      0.89714431	     -0.22656564	      4.94025836	    -10.66635771	     -1.70974835	     58.43507595	     10.28237236	      1.01988447	      1.30111847	     -6.09170418	     -7.59596579	     10.13616378	     -4.55034439	     -3.27695971	     15.82729416	     16.92776743	      0.27623839	      8.35680604	      1.08522285	     -7.59596579	    -10.62829378	     -0.01997436	      2.20139172	     -3.67542746	    -13.75636548	     -4.44520449	     16.93261286	     90.00000001	      0.00000000	      0.00000000	     -9.90157334	    -10.65148692	      3.26864455	     21.25306338	     90.00000001	      0.00000000	      0.00000000
      1.03000000	     -0.51822549	      0.69343106	      1.50260168	     -0.89748551	      0.89865240	     -0.22753069	      6.23946229	    -10.21380629	     -2.23952881	     58.65693215	      9.92815087	      1.02375660	      3.14719165	     -6.32257858	     -7.59435568	      8.93251967	     -4.85682782	     -3.12111673	     15.16598050	     16.95496247	      0.26469629	      8.79081776	      1.68385928	     -7.59435568	    -10.69098996	      0.49410156	      1.74102059	     -3.75349022	    -13.75644105	     -4.54983773	     16.87708169	     90.00000001	      0.00000000	      0.00000000	     -9.59281666	    -10.88945185	      3.22178782	     21.47995214	     90.00000001	      0.00000000	      0.00000000
      1.04000000	     -0.40710980	      0.31672896	      1.96857385	     -0.88640995	      0.90002851	     -0.22869316	      7.36759397	     -9.79896638	     -2.94770266	     58.46552950	      9.70042017	      1.02041599	      4.84999603	     -6.37000252	     -7.59284251	      7.70408679	     -5.20001140	     -2.89101788	     14.43569200	     16.99441595	      0.25195036	      9.27603400	      2.33813111	     -7.59284251	    -10.71008640	      1.07437555	      1.12987723	     -3.85723489	    -13.75572030	     -4.68889023	     16.81600145	     90.00000001	      0.00000000	      0.00000000	     -9.36350417	    -11.10173187	      3.19873826	     21.69709229	     90.00000001	      0.00000000	      0.00000000
      1.05000000	      0.31748904	     -0.26145187	      2.77624024	     -0.87462117	      0.90202869	     -0.22988167	      7.45250907	     -9.13163847	     -4.60600956	     57.62225460	      9.10083397	      1.00569807	      6.40393755	     -5.35957830	     -7.58878507	      5.64562207	     -5.89539526	     -2.08483407	     13.28494921	     17.30201984	      0.23186610	      9.88767119	      3.15865579	     -7.58878507	    -11.33100111	      1.91852098	      0.24848426	     -3.91538005	    -13.70250356	     -5.18280692	     16.69766465	     90.00000001	      0.00000000	      0.00000000	     -9.12140116	    -11.37895973	      3.20634636	     22.00990279	     90.00000001	      0.00000000	      0.00000000
      1.06000000	      0.51722400	     -0.63988670	      3.54571217	     -0.86321854	      0.90307280	     -0.23128935	      8.21191623	     -8.82768856	     -5.61713505	     56.80256703	      9.12101585	      0.99139182	      7.92208708	     -5.19368610	     -7.58628754	      4.37289065	     -6.28355500	     -1.58671486	     12.55237509	     17.36712676	      0.21908027	     10.40333147	      3.75564680	     -7.58628754	    -11.35047004	      2.55358029	     -0.62323403	     -4.10450416	    -13.67548273	     -5.37353634	     16.63335767	     90.00000001	      0.00000000	      0.00000000	     -8.91721139	    -11.63974715	      3.25886930	     22.22402780	     90.00000001	      0.00000000	      0.00000000
      1.07000000	      1.01856381	     -1.12540569	      4.44707990	     -0.85147959	      0.90436885	     -0.23270421	      8.43871826	     -8.36270611	     -7.01987083	     55.48353542	      8.97821124	      0.96837037	      9.16831243	     -4.83236849	     -7.58265224	      2.72216557	     -6.85980582	     -0.93500838	     11.67341118	     17.44968794	      0.20373946	     10.89415390	      4.28237391	     -7.58265224	    -11.65299300	      3.33907729	     -1.61225897	     -4.25846296	    -13.61495565	     -5.70877455	     16.59132017	     90.00000001	      0.00000000	      0.00000000	     -8.74508214	    -11.90066259	      3.36668420	     22.46881986	     90.00000001	      0.00000000	      0.00000000
      1.08000000	      1.31616451	     -1.52241684	      5.37754786	     -0.83994225	      0.90514670	     -0.23434957	      8.87323610	     -8.12663284	     -8.20917036	     54.04660939	      9.17055630	      0.94329128	     10.25337675	     -4.77250852	     -7.57985557	      1.39876013	     -7.33402915	     -0.28383007	     10.94744969	     17.50980402	      0.19106904	     11.43614950	      4.81546100	     -7.57985557	    -11.70746051	      4.04940353	     -2.60730676	     -4.48546037	    -13.60266383	     -5.96296561	     16.52701854	     90.00000001	      0.00000000	      0.00000000	     -8.56456747	    -12.13667054	      3.48477746	     22.68794216	     90.00000001	      0.00000000	      0.00000000
      1.09000000	      1.73653153	     -1.96097492	      6.29123982	     -0.82838501	      0.90588027	     -0.23577918	      9.12443528	     -7.77318385	     -9.46739901	     52.34017760	      9.27757157	      0.91350843	     11.19115929	     -4.83423107	     -7.57560158	     -0.08578555	     -7.92713442	      0.40805583	     10.11787746	     17.57715783	      0.17659027	     11.82968386	      5.13442827	     -7.57560158	    -11.88584290	      4.80135948	     -3.55249437	     -4.70636831	    -13.56015306	     -6.31774761	     16.49934293	     90.00000001	      0.00000000	      0.00000000	     -8.35798519	    -12.39072021	      3.66508947	     22.90972684	     90.00000001	      0.00000000	      0.00000000
      1.10000000	      2.02409942	     -2.31577370	      7.11875411	     -0.81712953	      0.90621876	     -0.23725551	      9.53897142	     -7.56462444	    -10.51440702	     50.50743614	      9.52811882	      0.88152106	     11.92722852	     -5.16739174	     -7.57193530	     -1.35496949	     -8.43796494	      1.04754343	      9.40963975	     17.65145950	      0.16422920	     12.27971966	      5.48061135	     -7.57193530	    -11.94028819	      5.46618756	     -4.48715515	     -4.88277428	    -13.55384311	     -6.62151765	     16.47611806	     90.00000001	      0.00000000	      0.00000000	     -8.17390813	    -12.60884920	      3.86693477	     23.09883462	     90.00000001	      0.00000000	      0.00000000
      1.11000000	      2.00035028	     -2.50339347	      7.81010322	     -0.80636159	      0.90595018	     -0.23855776	     10.39197799	     -7.64138200	    -11.32993717	     48.73150288	      9.91605747	      0.85052517	     12.70587666	     -5.50633176	     -7.57022059	     -2.17566281	     -8.68098067	      1.49766842	      8.95255340	     17.58433392	      0.15625153	     12.79734489	      5.94437190	     -7.57022059	    -11.72531882	      5.87851873	     -5.26882920	     -5.10388375	    -13.51189832	     -6.77819313	     16.44418157	     90.00000001	      0.00000000	      0.00000000	     -7.91433174	    -12.83501877	      4.02585560	     23.23607816	     90.00000001	      0.00000000	      0.00000000
